#!OML:ASF H:\Pregnant\Project 1\Capture day 1\Session 1\femalepreg.ASF
:FULLY-SPECIFIED
:DEGREES
521
root 2.92786 15.3666 -24.2184 -161.094 8.40953 -178.44
lowerback -15.3459 -2.9478 1.26731
upperback -8.6494 -2.77971 3.47285
thorax -0.462694 -0.777906 2.51208
lowerneck -19.3757 -5.49597 -1.01381
upperneck 39.7923 -5.12845 0.568239
head 18.1974 -0.947814 -0.234726
rclavicle 2.14687e-014 2.22639e-014
rhumerus -43.0195 8.94524 -85.3046
rradius 40.6684
rwrist -28.3767
rhand -25.742 -30.2582
rfingers 7.12502
rthumb 0.794924 -60.2365
lclavicle 2.14687e-014 2.22639e-014
lhumerus -48.0593 0.496658 89.401
lradius 52.3478
lwrist 46.9937
lhand -40.9103 -16.1512
lfingers 7.12502
lthumb -13.8452 13.368
rfemur -52.8825 12.1014 29.9554
rtibia 45.6698
rfoot -5.36619 -11.2733
rtoes -0.479183
lfemur -31.9569 0.432616 -22.6458
ltibia 69.5606
lfoot 4.8327 -11.5426
ltoes -15.1501
522
root 2.94504 15.3701 -24.3209 -160.698 9.18278 -178.176
lowerback -15.4932 -2.94867 1.38322
upperback -8.72788 -2.77807 3.63305
thorax -0.468607 -0.767434 2.61302
lowerneck -19.4545 -5.5775 -1.0565
upperneck 39.9717 -5.22054 0.523356
head 18.3244 -0.99219 -0.269199
rclavicle -1.49089e-015 -2.06736e-014
rhumerus -41.9975 10.1277 -86.2604
rradius 44.28
rwrist -31.2351
rhand -25.0789 -30.2774
rfingers 7.12502
rthumb 1.43538 -60.2523
lclavicle -1.49089e-015 -2.06736e-014
lhumerus -48.3242 0.713883 88.9356
lradius 49.7394
lwrist 51.2066
lhand -41.5457 -16.1922
lfingers 7.12502
lthumb -14.4574 13.2842
rfemur -52.7536 12.3631 30.3086
rtibia 45.5389
rfoot -5.69959 -10.6576
rtoes -0.347417
lfemur -34.2367 0.47224 -22.3298
ltibia 71.3151
lfoot 4.17942 -10.972
ltoes -15.7339
523
root 2.96349 15.3757 -24.4262 -160.361 10.0025 -178.092
lowerback -15.6606 -2.97125 1.29807
upperback -8.77296 -2.79246 3.73702
thorax -0.418899 -0.764765 2.76458
lowerneck -19.5596 -5.64483 -1.10941
upperneck 40.1101 -5.31885 0.526906
head 18.4383 -1.03829 -0.282659
rclavicle -8.05078e-015 3.73715e-014
rhumerus -40.9603 11.363 -87.1769
rradius 47.8134
rwrist -33.6477
rhand -23.9497 -29.7782
rfingers 7.12502
rthumb 2.52595 -59.743
lclavicle -8.05078e-015 3.73715e-014
lhumerus -48.539 0.596528 88.6058
lradius 47.3744
lwrist 55.5878
lhand -42.0503 -15.9799
lfingers 7.12502
lthumb -14.9436 13.461
rfemur -52.6363 12.62 30.4619
rtibia 45.5276
rfoot -6.11345 -10.0818
rtoes -0.109948
lfemur -36.3243 0.413924 -22.1691
ltibia 72.7293
lfoot 3.61192 -10.3133
ltoes -16.3641
524
root 2.98057 15.3831 -24.5321 -160.153 10.7807 -178.184
lowerback -15.7744 -3.0005 1.0888
upperback -8.80155 -2.80854 3.74672
thorax -0.376783 -0.766242 2.88771
lowerneck -19.624 -5.7515 -1.17253
upperneck 40.2223 -5.49488 0.574877
head 18.5302 -1.11064 -0.288979
rclavicle 3.97072e-014 -2.38542e-014
rhumerus -39.9258 12.5633 -88.0459
rradius 51.1781
rwrist -35.5583
rhand -22.4142 -28.8325
rfingers 7.12502
rthumb 4.00877 -58.7745
lclavicle 3.97072e-014 -2.38542e-014
lhumerus -48.7421 -0.016807 88.4891
lradius 45.1695
lwrist 59.9221
lhand -42.4446 -15.5048
lfingers 7.12502
lthumb -15.3234 13.9075
rfemur -52.4698 12.7911 30.4419
rtibia 45.637
rfoot -6.59054 -9.55853
rtoes 0.067174
lfemur -38.1719 0.168083 -22.1437
ltibia 73.8075
lfoot 3.10641 -9.55414
ltoes -17.2398
525
root 2.99653 15.3935 -24.6407 -160.051 11.6149 -178.402
lowerback -15.8568 -3.02808 0.764723
upperback -8.79373 -2.81975 3.7
thorax -0.308628 -0.76898 3.01709
lowerneck -19.6864 -5.86279 -1.2412
upperneck 40.287 -5.70968 0.676281
head 18.5976 -1.19576 -0.278489
rclavicle 7.35503e-015 -4.77083e-014
rhumerus -38.8425 13.793 -88.8682
rradius 54.3671
rwrist -36.9285
rhand -20.6669 -27.7254
rfingers 7.12502
rthumb 5.696 -57.6289
lclavicle 7.35503e-015 -4.77083e-014
lhumerus -48.9033 -1.04746 88.6065
lradius 43.0646
lwrist 63.9617
lhand -42.73 -14.9576
lfingers 7.12502
lthumb -15.5984 14.4334
rfemur -52.2401 12.9756 30.2738
rtibia 45.8217
rfoot -7.07542 -9.06791
rtoes 0.0563732
lfemur -39.7807 -0.146895 -22.2231
ltibia 74.5702
lfoot 2.61798 -8.70338
ltoes -18.2627
526
root 3.01045 15.4067 -24.7512 -160.055 12.4517 -178.694
lowerback -15.8866 -3.05436 0.401393
upperback -8.75307 -2.83389 3.60366
thorax -0.233159 -0.778551 3.11675
lowerneck -19.7398 -5.98957 -1.30681
upperneck 40.3083 -5.97922 0.824505
head 18.6406 -1.29879 -0.258806
rclavicle 3.3048e-014 -5.80451e-014
rhumerus -37.7341 15.057 -89.6522
rradius 57.4166
rwrist -37.7741
rhand -18.8901 -26.5434
rfingers 7.12502
rthumb 7.41127 -56.3936
lclavicle 3.3048e-014 -5.80451e-014
lhumerus -49.1064 -2.43955 88.9685
lradius 41.1109
lwrist 67.3633
lhand -43.0279 -14.2985
lfingers 7.12502
lthumb -15.8852 15.07
rfemur -51.9181 13.1716 30.0076
rtibia 46.0283
rfoot -7.54556 -8.64183
rtoes -0.137787
lfemur -41.1854 -0.549441 -22.3387
ltibia 75.0743
lfoot 2.14788 -7.78232
ltoes -19.364
527
root 3.02216 15.4224 -24.8624 -160.135 13.2884 -178.996
lowerback -15.8422 -3.09315 0.0366571
upperback -8.71114 -2.8658 3.51832
thorax -0.193831 -0.798111 3.22804
lowerneck -19.7343 -6.12298 -1.41342
upperneck 40.2875 -6.25702 1.00038
head 18.6477 -1.41047 -0.219836
rclavicle 6.70898e-015 -7.95139e-015
rhumerus -36.7003 16.4069 -90.3747
rradius 60.3955
rwrist -38.0989
rhand -17.3173 -25.709
rfingers 7.12502
rthumb 8.92917 -55.5
lclavicle 6.70898e-015 -7.95139e-015
lhumerus -49.4108 -4.00917 89.5726
lradius 39.3311
lwrist 69.8644
lhand -43.3798 -13.6192
lfingers 7.12502
lthumb -16.2241 15.7219
rfemur -51.4994 13.4131 29.7024
rtibia 46.1933
rfoot -7.9541 -8.28813
rtoes -0.578055
lfemur -42.4364 -1.00146 -22.425
ltibia 75.3842
lfoot 1.65743 -6.80111
ltoes -20.5202
528
root 3.03178 15.4395 -24.9726 -160.216 14.168 -179.243
lowerback -15.7648 -3.11078 -0.26343
upperback -8.68306 -2.87474 3.44654
thorax -0.191019 -0.806441 3.32199
lowerneck -19.6733 -6.27605 -1.55696
upperneck 40.2332 -6.56549 1.20886
head 18.6258 -1.53736 -0.164551
rclavicle -4.31363e-014 2.38542e-015
rhumerus -35.7307 17.7875 -91.032
rradius 63.2942
rwrist -37.9274
rhand -15.7316 -26.3406
rfingers 7.12502
rthumb 10.4591 -56.0605
lclavicle -4.31363e-014 2.38542e-015
lhumerus -49.8606 -5.62034 90.3354
lradius 37.7895
lwrist 71.2108
lhand -43.7647 -12.7272
lfingers 7.12502
lthumb -16.5947 16.5833
rfemur -51.037 13.7641 29.4041
rtibia 46.2779
rfoot -8.3072 -7.99641
rtoes -1.03563
lfemur -43.6299 -1.423 -22.4315
ltibia 75.5696
lfoot 1.13113 -5.79104
ltoes -21.6948
529
root 3.0396 15.4575 -25.0806 -160.247 15.1096 -179.393
lowerback -15.6896 -3.07957 -0.449105
upperback -8.66867 -2.82932 3.37578
thorax -0.211367 -0.788886 3.36117
lowerneck -19.5846 -6.44456 -1.70722
upperneck 40.1595 -6.90875 1.4496
head 18.5903 -1.675 -0.0996943
rclavicle 3.96575e-014 -3.81667e-014
rhumerus -34.87 19.1201 -91.6345
rradius 66.1799
rwrist -37.3441
rhand -14.0351 -27.8708
rfingers 7.12502
rthumb 12.0952 -57.5012
lclavicle 3.96575e-014 -3.81667e-014
lhumerus -50.4487 -7.18285 91.1601
lradius 36.5255
lwrist 71.3138
lhand -44.1903 -11.7779
lfingers 7.12502
lthumb -17.0044 17.4979
rfemur -50.566 14.2522 29.1443
rtibia 46.2625
rfoot -8.60567 -7.74626
rtoes -1.37309
lfemur -44.8366 -1.77031 -22.3231
ltibia 75.6907
lfoot 0.577578 -4.77418
ltoes -22.7696
530
root 3.04603 15.4746 -25.1853 -160.208 16.1198 -179.445
lowerback -15.6307 -2.98927 -0.518809
upperback -8.66782 -2.71583 3.29204
thorax -0.248668 -0.738921 3.3315
lowerneck -19.4775 -6.63986 -1.83226
upperneck 40.0664 -7.31127 1.70585
head 18.5416 -1.8307 -0.0442692
rclavicle 8.99998e-014 2.14687e-014
rhumerus -34.061 20.3684 -92.1936
rradius 68.9971
rwrist -36.4536
rhand -12.1967 -30.2271
rfingers 7.12502
rthumb 13.8675 -59.7448
lclavicle 8.99998e-014 2.14687e-014
lhumerus -51.1665 -8.64821 91.9671
lradius 35.5485
lwrist 70.2009
lhand -44.5766 -10.5642
lfingers 7.12502
lthumb -17.3762 18.6791
rfemur -50.1191 14.8838 28.922
rtibia 46.1595
rfoot -8.85012 -7.52912
rtoes -1.54379
lfemur -46.0796 -2.01768 -22.1084
ltibia 75.7831
lfoot -0.00455462 -3.77519
ltoes -23.7722
531
root 3.05133 15.4905 -25.2863 -160.067 17.2123 -179.406
lowerback -15.6267 -2.83753 -0.483767
upperback -8.67687 -2.52935 3.18972
thorax -0.278028 -0.653908 3.233
lowerneck -19.3849 -6.85666 -1.92246
upperneck 39.9697 -7.76762 1.97681
head 18.498 -1.99983 7.46299e-005
rclavicle -3.39425e-014 -1.74931e-014
rhumerus -33.2853 21.5107 -92.7138
rradius 71.7568
rwrist -35.3568
rhand -10.3434 -32.9396
rfingers 7.12502
rthumb 15.6529 -62.3264
lclavicle -3.39425e-014 -1.74931e-014
lhumerus -51.9994 -10.0104 92.7163
lradius 34.8661
lwrist 68.0831
lhand -44.8614 -9.27191
lfingers 7.12502
lthumb -17.6503 19.947
rfemur -49.745 15.6459 28.7275
rtibia 45.9935
rfoot -9.05348 -7.32055
rtoes -1.6031
lfemur -47.4078 -2.15471 -21.7986
ltibia 75.8726
lfoot -0.437345 -2.89363
ltoes -23.8869
532
root 3.05574 15.5053 -25.3846 -159.862 18.3176 -179.312
lowerback -15.6683 -2.65276 -0.373178
upperback -8.68199 -2.30739 3.06996
thorax -0.284564 -0.553429 3.07775
lowerneck -19.3157 -7.08371 -2.00267
upperneck 39.882 -8.25185 2.27284
head 18.4716 -2.17316 0.0479431
rclavicle -5.6107e-014 2.38542e-014
rhumerus -32.5176 22.5768 -93.1847
rradius 74.4295
rwrist -34.1408
rhand -8.6898 -35.3594
rfingers 7.12502
rthumb 17.245 -64.6142
lclavicle -5.6107e-014 2.38542e-014
lhumerus -52.941 -11.2807 93.4137
lradius 34.4733
lwrist 65.2496
lhand -44.9506 -8.00825
lfingers 7.12502
lthumb -17.7361 21.2029
rfemur -49.42 16.469 28.5473
rtibia 45.8006
rfoot -9.24812 -7.13663
rtoes -1.57701
lfemur -48.7865 -2.25601 -21.4111
ltibia 75.9585
lfoot -0.753763 -2.14808
ltoes -23.447
